<!-- YBMA · Session 24 (14 Sep 2026) · Turned — the Session 20 engine and TURN config, verbatim · construction geometry for review, not production artwork. Generated from identity/ybma-geometry.js -->
<svg xmlns="http://www.w3.org/2000/svg" viewBox="-10 -10 351 120"><defs><clipPath id="wc1"><rect x="-50" y="0" width="531" height="100"/></clipPath></defs><g fill="#000" class=""><g class="ltr ltr-Y" transform="translate(0,0)"><path fill-rule="evenodd" d="M0.00 0.00L20.38 0.00L30.95 16.00L37.00 25.16L43.05 16.00L53.62 0.00L74.00 0.00L63.43 16.00L45.50 43.14L45.50 84.00L45.50 100.00L28.50 100.00L28.50 84.00L28.50 43.14L10.57 16.00Z"/></g><g class="ltr ltr-B" transform="translate(84,0)"><path fill-rule="evenodd" d="M0 0H39A26 24 0 0 1 39 48H37A28 26 0 0 1 37 100H0V84H0V16H0Z M17 17H39A9 11.25 0 0 1 39 39.5H17Z M17 56.5H37A11 13.25 0 0 1 37 83H17Z"/></g><g class="ltr ltr-M" transform="translate(159,0)"><path fill-rule="evenodd" d="M0.00 0.00L18.92 0.00L44.00 51.29L69.08 0.00L88.00 0.00L88.00 16.00L88.00 84.00L88.00 100.00L71.00 100.00L71.00 84.00L71.00 34.77L44.00 90.00L17.00 34.77L17.00 84.00L17.00 100.00L0.00 100.00L0.00 84.00L0.00 16.00Z"/></g><g class="ltr ltr-A" transform="translate(257,0)"><path fill-rule="evenodd" d="M28.50 0.00L45.50 0.00L69.44 84.00L74.00 100.00L56.32 100.00L51.76 84.00L37.00 32.20L22.24 84.00L17.68 100.00L0.00 100.00L4.56 84.00Z M27.37 66.00L46.63 66.00L51.48 83.00L22.52 83.00Z"/></g></g></svg>
